HIERARCHY
ROOT Hips
{
	OFFSET 0.00000 0.00000 0.00000
	CHANNELS 6 Xposition Yposition Zposition Zrotation Yrotation Xrotation 
	JOINT LHipJoint
	{
		OFFSET 0 0 0
		CHANNELS 3 Zrotation Yrotation Xrotation
		JOINT LeftHip
		{
			OFFSET 1.62964 -1.40469 0.78906
			CHANNELS 3 Zrotation Yrotation Xrotation
			JOINT LeftKnee
			{
				OFFSET 2.29640 -6.30932 0.00000
				CHANNELS 3 Zrotation Yrotation Xrotation
				JOINT LeftAnkle
				{
					OFFSET 2.29451 -6.30412 0.00000
					CHANNELS 3 Zrotation Yrotation Xrotation
					JOINT LeftToe
					{
						OFFSET 0.03611 -0.09921 1.56387
						CHANNELS 3 Zrotation Yrotation Xrotation
						End Site
						{
							OFFSET 0.00000 -0.00000 0.80291
						}
					}
				}
			}
		}
	}
	JOINT RHipJoint
	{
		OFFSET 0 0 0
		CHANNELS 3 Zrotation Yrotation Xrotation
		JOINT RightHip
		{
			OFFSET -1.73712 -1.40469 0.78906
			CHANNELS 3 Zrotation Yrotation Xrotation
			JOINT RightKnee
			{
				OFFSET -2.28137 -6.26801 0.00000
				CHANNELS 3 Zrotation Yrotation Xrotation
				JOINT RightAnkle
				{
					OFFSET -2.28681 -6.28298 0.00000
					CHANNELS 3 Zrotation Yrotation Xrotation
					JOINT RightToe
					{
						OFFSET -0.15927 -0.43759 1.61103
						CHANNELS 3 Zrotation Yrotation Xrotation
						End Site
						{
							OFFSET -0.00000 -0.00000 0.84630
						}
					}
				}
			}
		}
	}
	JOINT lowerback
	{
		OFFSET 0 0 0
		CHANNELS 3 Zrotation Yrotation Xrotation
		JOINT Chest
		{
			OFFSET -0.04227 2.04338 -0.00225
			CHANNELS 3 Zrotation Yrotation Xrotation
			JOINT Chest2
			{
				OFFSET -0.02148 2.04482 -0.04273
				CHANNELS 3 Zrotation Yrotation Xrotation
				JOINT lowerneck
				{
					OFFSET 0 0 0
					CHANNELS 3 Zrotation Yrotation Xrotation
					JOINT Neck
					{
						OFFSET 0.09180 1.44629 0.19359
						CHANNELS 3 Zrotation Yrotation Xrotation
						JOINT Head
						{
							OFFSET 0.00887 1.40645 0.14750
							CHANNELS 3 Zrotation Yrotation Xrotation
							End Site
							{
								OFFSET -0.00669 1.50671 0.03707
							}
						}
					}
				}
				JOINT LeftCollar
				{
					OFFSET 0 0 0
					CHANNELS 3 Zrotation Yrotation Xrotation
					JOINT LeftShoulder
					{
						OFFSET 2.17674 1.86763 -0.06520
CHANNELS 3 Zrotation Xrotation Yrotation
						JOINT LeftElbow
						{
OFFSET 0 -4.657760 0.000000
CHANNELS 3 Zrotation Xrotation Yrotation
							JOINT LeftWrist
							{
OFFSET 0 -3.555390 0.000000
CHANNELS 3 Zrotation Xrotation Yrotation
								JOINT lhand
								{
									OFFSET 0 0 0
CHANNELS 3 Zrotation Xrotation Yrotation
									JOINT LFingers
									{
OFFSET 0 -0.707260 0.000000
CHANNELS 3 Zrotation Xrotation Yrotation
										End Site
										{
OFFSET 0 -0.570220 0.000000
										}
									}
								}
								JOINT LThumb
								{
OFFSET 0 0.000000 0.000000
CHANNELS 3 Zrotation Xrotation Yrotation
									End Site
									{
OFFSET 0 -0.578920 0.578920
									}
								}
							}
						}
					}
				}
				JOINT RightCollar
				{
					OFFSET 0 0 0
					CHANNELS 3 Zrotation Yrotation Xrotation
					JOINT RightShoulder
					{
						OFFSET -2.80694 1.55459 -0.32496
CHANNELS 3 Zrotation Xrotation Yrotation
						JOINT RightElbow
						{
OFFSET 0 -4.719250 -0.000000
CHANNELS 3 Zrotation Xrotation Yrotation
							JOINT RightWrist
							{
OFFSET 0 -3.569900 0.000000
CHANNELS 3 Zrotation Xrotation Yrotation
								JOINT rhand
								{
									OFFSET 0 0 0
CHANNELS 3 Zrotation Xrotation Yrotation
									JOINT RFingers
									{
OFFSET 0 -0.507760 0.000000
CHANNELS 3 Zrotation Xrotation Yrotation
										End Site
										{
OFFSET 0 -0.409370 0.000000
										}
									}
								}
								JOINT RThumb
								{
OFFSET 0 0.000000 0.000000
CHANNELS 3 Zrotation Xrotation Yrotation
									End Site
									{
OFFSET 0 -0.415620 0.415620
									}
								}
							}
						}
					}
				}
			}
		}
	}
}
MOTION
Frames: 6
Frame Time: 0.008333333333333333
-0.975700 19.678100 20.646700 176.235000 -2.151100 -152.395000 0.000000 0.000000 0.000000 -22.659000 -16.557800 -21.472200 0.162200 2.594600 7.152000 0.124700 -2.375000 -6.271200 1.880200 -8.612000 -24.588800 0.000000 0.000000 0.000000 16.428700 12.643800 -23.343100 -0.142000 -2.428300 6.691000 -0.850100 4.396500 -16.497300 -0.236800 3.131500 -8.645200 -7.495100 -2.589900 -26.972500 -0.241300 -1.677700 -1.673800 3.350800 -1.457000 13.382200 -1.004700 -2.439000 -3.811200 3.333200 -6.415100 24.286500 0.637800 -3.643600 8.283900 -0.000000 0.000000 0.000000 5.362100 -0.865300 -2.688400 2.815500 -4.862900 0.119600 22.708800 25.422100 5.653900 0.000000 0.000000 0.000000 -7.125000 0.000000 0.000000 -2.965600 23.855600 -1.514800 -0.000000 0.000000 0.000000 -0.567100 3.370900 -15.290600 -7.098500 -12.081300 -0.752100 -16.483900 45.538900 56.995600 0.000000 0.000000 0.000000 7.125000 0.000000 -0.000000 83.627200 77.957800 -71.248400
-0.973240 19.678381 20.642132 176.225160 -2.252379 -152.470907 0.000000 0.000000 0.000000 -22.678117 -16.480839 -21.374084 0.161919 2.592351 7.145885 0.124278 -2.509312 -6.263328 1.985977 -8.835292 -25.282361 0.000000 0.000000 0.000000 16.426099 12.794629 -23.099848 -0.138205 -2.395759 6.600826 -0.864227 4.184524 -16.657898 -0.227312 3.068315 -8.469069 -7.516677 -2.626729 -26.916203 -0.221058 -1.718043 -1.640556 3.372307 -1.475485 13.397803 -1.407005 -2.471049 -3.724751 3.913885 -6.545547 24.168985 0.890400 -3.691885 8.263799 0.000000 0.000000 0.000000 5.400897 -0.344427 -2.698451 3.176899 -5.482663 0.152985 22.746191 24.743299 6.023171 0.000000 0.000000 0.000000 -7.125000 0.000000 0.000000 -2.940790 23.454701 -1.529138 0.000000 0.000000 0.000000 -0.557893 3.616331 -14.859479 -7.187760 -12.227842 -0.770936 -16.025579 44.423918 57.044026 0.000000 0.000000 0.000000 7.125000 0.000000 0.000000 83.737475 77.790665 -71.176500
-0.969157 19.679636 20.635900 176.198282 -2.396457 -152.610098 0.000000 0.000000 0.000000 -22.717396 -16.377428 -21.185380 0.159650 2.574159 7.095390 0.122315 -2.676687 -6.223205 2.034838 -8.938260 -25.602415 0.000000 0.000000 0.000000 16.404189 13.114382 -22.680248 -0.133233 -2.352183 6.480064 -0.882857 3.695025 -16.903364 -0.225004 3.053243 -8.427054 -7.575333 -2.690981 -26.813212 -0.195462 -1.781874 -1.582119 3.413124 -1.505896 13.422493 -1.428014 -2.408536 -3.351448 4.049056 -6.392223 23.648351 0.968356 -3.604390 8.020941 0.000000 0.000000 0.000000 5.439774 0.135108 -2.698238 3.521017 -6.071634 0.187587 22.533118 23.987379 6.509642 0.000000 0.000000 0.000000 -7.125000 0.000000 0.000000 -3.102063 22.940984 -1.651913 0.000000 0.000000 0.000000 -0.546738 3.791458 -14.559148 -7.234384 -12.304364 -0.780807 -15.943685 43.697898 57.101498 0.000000 0.000000 0.000000 7.125000 0.000000 0.000000 83.984910 77.758215 -71.388248
-0.964353 19.681495 20.629047 176.160876 -2.558006 -152.782409 0.000000 0.000000 0.000000 -22.770045 -16.258517 -20.950102 0.156164 2.546187 7.017680 0.119201 -2.856876 -6.158644 2.030179 -8.928403 -25.571947 0.000000 0.000000 0.000000 16.391995 13.414341 -22.200064 -0.127041 -2.296987 6.327140 -0.898427 3.147267 -17.128341 -0.230213 3.087966 -8.523833 -7.653315 -2.769093 -26.684667 -0.168590 -1.857529 -1.511132 3.462432 -1.542299 13.450487 -1.265832 -2.323686 -2.938140 3.938955 -6.151192 23.063561 0.943701 -3.478453 7.732942 0.000000 0.000000 0.000000 5.477301 0.580250 -2.688021 3.847082 -6.628546 0.223113 22.126267 23.173254 7.106867 0.000000 0.000000 0.000000 -7.125000 0.000000 0.000000 -3.407143 22.319396 -1.862334 0.000000 0.000000 0.000000 -0.529795 3.911669 -14.367612 -7.250764 -12.331213 -0.784316 -16.154413 43.276492 57.149819 0.000000 0.000000 0.000000 7.125000 0.000000 0.000000 84.264429 77.831324 -71.746950
-0.962104 19.682760 20.625462 176.134169 -2.643542 -152.882212 0.000000 0.000000 0.000000 -22.815027 -16.160822 -20.823170 0.153985 2.528616 6.968973 0.115968 -2.974602 -6.089625 1.960738 -8.783337 -25.120163 0.000000 0.000000 0.000000 16.510494 12.928188 -22.095552 -0.118888 -2.222416 6.120787 -0.879169 3.393822 -16.900622 -0.247784 3.202388 -8.842711 -7.688386 -2.813091 -26.603489 -0.156220 -1.903706 -1.472476 3.480776 -1.563665 13.460116 -1.630043 -2.495881 -3.456553 4.272873 -6.568256 23.744681 1.057701 -3.686704 8.091390 0.000000 0.000000 0.000000 5.507101 1.002866 -2.664195 4.143610 -7.133394 0.258817 21.662957 22.349739 7.840489 0.000000 0.000000 0.000000 -7.125000 0.000000 0.000000 -3.753291 21.559628 -2.117745 0.000000 0.000000 0.000000 -0.488960 4.013159 -14.247215 -7.272552 -12.366917 -0.788955 -16.457617 42.962956 57.111725 0.000000 0.000000 0.000000 7.125000 0.000000 0.000000 84.169405 77.942231 -71.772533
-0.961551 19.683203 20.624809 176.122886 -2.661667 -152.900773 0.000000 0.000000 0.000000 -22.838824 -16.093928 -20.813318 0.153657 2.525957 6.961608 0.113763 -3.049803 -6.042562 1.898085 -8.649840 -24.706326 0.000000 0.000000 0.000000 16.556492 12.679436 -22.108481 -0.115723 -2.192990 6.039331 -0.869989 3.550292 -16.787464 -0.256871 3.260815 -9.005788 -7.710809 -2.829271 -26.579797 -0.140302 -1.919596 -1.463437 3.506576 -1.572177 13.461415 -1.583981 -2.529142 -3.345084 4.258788 -6.603688 23.636571 1.046856 -3.702647 8.033497 0.000000 0.000000 0.000000 5.495252 1.367276 -2.656566 4.415919 -7.595925 0.293852 21.266593 21.734522 8.125944 0.000000 0.000000 0.000000 -7.125000 0.000000 0.000000 -4.044266 21.277954 -2.306929 0.000000 0.000000 0.000000 -0.474658 4.110278 -14.108771 -7.299276 -12.410694 -0.794673 -16.365307 42.359776 56.809337 0.000000 0.000000 0.000000 7.125000 0.000000 0.000000 82.722472 77.918216 -70.309330
